<svg xmlns="http://www.w3.org/2000/svg" xmlns:xlink="http://www.w3.org/1999/xlink" version="1.1" enable-background="new 0 0 1000 1000" xml:space="preserve" width="1000" height="1000"><rect id="backgroundrect" width="100%" height="100%" x="0" y="0" fill="none" stroke="none"/>
<metadata> Svg Vector Icons : http://www.onlinewebfonts.com/icon </metadata>

<g class="currentLayer"><title>Layer 1</title><g id="svg_1" class="" fill="#00bce7" fill-opacity="1" stroke="#00bce7" stroke-opacity="1"><path d="M108.7,159.4l-20.2,25.5c-5.6,7.1-4.6,17.8,2.4,24.3l356.8,387.7c14.1,11.1,34.6,8.7,45.8-5.4c0,0,47.4-99.3,47.4-116.4c0-27.4-3.2-39.5-19.2-51c-16-11.5-388.9-268-388.9-268C124.9,150.8,114.2,152.3,108.7,159.4z" id="svg_2" fill="#00bce7" fill-opacity="1" stroke="#00bce7" stroke-opacity="1"/><path fill="#00bce7" stroke="#00bce7" stroke-linecap="round" stroke-linejoin="round" stroke-miterlimit="10" d="M71.3,459.2c0,22.5,18.3,40.8,40.8,40.8s40.8-18.3,40.8-40.8V224.4" id="svg_3" fill-opacity="1" stroke-opacity="1"/><g id="svg_4" fill="#00bce7" fill-opacity="1" stroke="#00bce7" stroke-opacity="1"><g id="svg_5" fill="#00bce7" fill-opacity="1" stroke="#00bce7" stroke-opacity="1"><path d="M785.8,663.3c33.8,0,61.3,27.5,61.3,61.3c0,33.8-27.5,61.3-61.3,61.3c-33.8,0-61.3-27.5-61.3-61.3C724.6,690.8,752.1,663.3,785.8,663.3 M785.8,602.1c-67.7,0-122.5,54.8-122.5,122.5s54.8,122.5,122.5,122.5c67.7,0,122.5-54.8,122.5-122.5S853.5,602.1,785.8,602.1L785.8,602.1z" id="svg_6" fill="#00bce7" fill-opacity="1" stroke="#00bce7" stroke-opacity="1"/></g></g><g id="svg_7" fill="#00bce7" fill-opacity="1" stroke="#00bce7" stroke-opacity="1"><g id="svg_8" fill="#00bce7" fill-opacity="1" stroke="#00bce7" stroke-opacity="1"><path d="M255,663.3c33.8,0,61.3,27.5,61.3,61.3c0,33.8-27.5,61.3-61.3,61.3s-61.3-27.5-61.3-61.3C193.8,690.8,221.2,663.3,255,663.3 M255,602.1c-67.7,0-122.5,54.8-122.5,122.5S187.3,847.1,255,847.1c67.7,0,122.5-54.8,122.5-122.5S322.7,602.1,255,602.1L255,602.1z" id="svg_9" fill="#00bce7" fill-opacity="1" stroke="#00bce7" stroke-opacity="1"/></g></g><g id="svg_10" fill="#00bce7" fill-opacity="1" stroke="#00bce7" stroke-opacity="1"><path d="M793.9,295.8l134.9,202.3v111.1c-33.7-41.7-85.3-68.4-142.9-68.4c-57.7,0-109.2,26.7-142.9,68.4V295.8H793.9 M812.3,234.6H608.4c-14.7,0-26.7,12-26.7,26.8v436.5c0,14.7,12,26.7,26.8,26.7h54.9c0-67.7,54.8-122.5,122.5-122.5c67.7,0,122.5,54.8,122.5,122.5h54.9c14.8,0,26.8-12,26.8-26.8V487.7c0-5.3-1.6-10.5-4.5-14.9L834.6,246.5C829.6,239.1,821.3,234.6,812.3,234.6L812.3,234.6z" id="svg_11" fill="#00bce7" fill-opacity="1" stroke="#00bce7" stroke-opacity="1"/></g><g id="svg_12" fill="#00bce7" fill-opacity="1" stroke="#00bce7" stroke-opacity="1"><path d="M988.7,479.6H704.2V316.3h163.3l-163.3-81.7h-95.7c-14.8,0-26.8,12-26.8,26.8v436.5c0,14.7,12,26.7,26.8,26.7h95.7c0-45.1,36.5-81.7,81.7-81.7c45.1,0,81.7,36.5,81.7,81.7h95.7c14.8,0,26.8-12,26.8-26.8V487.7C990,484.9,989.5,482.2,988.7,479.6z" id="svg_13" fill="#00bce7" fill-opacity="1" stroke="#00bce7" stroke-opacity="1"/></g><path d="M627.8,561.3H45.6c-19.6,0-35.6,15.9-35.6,35.6V689c0,19.6,15.9,35.6,35.6,35.6H143h30.3c0-45.1,36.5-81.7,81.7-81.7s81.7,36.5,81.7,81.7h291.1c19.6,0,35.6-15.9,35.6-35.6v-92.2C663.3,577.2,647.4,561.3,627.8,561.3z" id="svg_14" fill="#00bce7" fill-opacity="1" stroke="#00bce7" stroke-opacity="1"/><path d="M505.3,438.8h-133c-19.6,0-35.6,15.9-35.6,35.6v92.2c0,19.6,15.9,35.6,35.6,35.6h133c19.6,0,35.6-15.9,35.6-35.6v-92.2C540.8,454.7,524.9,438.8,505.3,438.8z" id="svg_15" fill="#00bce7" fill-opacity="1" stroke="#00bce7" stroke-opacity="1"/></g></g></svg>