<?xml version="1.0" ?><!DOCTYPE svg  PUBLIC '-//W3C//DTD SVG 1.1//EN'  'http://www.w3.org/Graphics/SVG/1.1/DTD/svg11.dtd'><svg enable-background="new 0 0 800 800" height="800px" id="Layer_1" version="1.1" viewBox="0 0 800 800" width="800px" xml:space="preserve" xmlns="http://www.w3.org/2000/svg" xmlns:xlink="http://www.w3.org/1999/xlink"><g><path d="M147.925,479.143h75.232c14.677,0,26.612-11.943,26.612-26.621V377.29c0-0.931-0.186-1.803-0.28-2.709   c0.906,0.093,1.786,0.271,2.718,0.271h75.231c0.931,0,1.812-0.178,2.708-0.271c-0.084,0.906-0.271,1.778-0.271,2.709v75.231   c0,14.678,11.935,26.621,26.612,26.621h75.232c14.678,0,26.611-11.943,26.611-26.621V377.29c0-0.931-0.186-1.803-0.27-2.709   c0.896,0.093,1.777,0.271,2.707,0.271h75.232c0.932,0,1.811-0.178,2.717-0.271c-0.094,0.906-0.279,1.778-0.279,2.709v75.231   c0,14.678,11.943,26.621,26.613,26.621h75.23c14.678,0,26.613-11.943,26.613-26.621V377.29c0-14.669-11.936-26.612-26.613-26.612   h-75.23c-0.924,0-1.805,0.186-2.709,0.279c0.092-0.906,0.27-1.777,0.27-2.708v-75.24c0-14.669-11.934-26.612-26.611-26.612H460.77   c-14.676,0-26.611,11.943-26.611,26.612v75.24c0,0.931,0.186,1.803,0.271,2.708c-0.898-0.093-1.777-0.279-2.709-0.279h-75.232   c-0.931,0-1.812,0.186-2.709,0.279c0.085-0.906,0.271-1.777,0.271-2.708v-75.24c0-14.669-11.935-26.612-26.612-26.612h-75.231   c-14.678,0-26.612,11.943-26.612,26.612v75.24c0,0.931,0.178,1.803,0.271,2.708c-0.905-0.093-1.777-0.279-2.708-0.279h-75.232   c-14.677,0-26.612,11.943-26.612,26.612v75.231C121.313,467.199,133.249,479.143,147.925,479.143z M568.775,381.014h67.783v67.792   h-67.783V381.014z M464.494,276.732h67.783v67.783h-67.783V276.732z M360.213,381.014h67.783v67.792h-67.783V381.014z    M255.931,276.732h67.783v67.783h-67.783V276.732z M151.65,381.014h67.783v67.792H151.65V381.014z" fill="#4D4D4D"/><path d="M147.071,570.531H621.4c48.178,0,84.566-13.475,108.148-40.061c24.521-27.645,33.824-67.742,27.645-119.188   l-0.727-6.086c-8.787-73.979-29.373-247.229-133.223-250.2H170.678c-99.178,0-122.675,143.209-133.975,212.033l-0.373,2.294   c-9.7,59.023-14.914,124.884,19.9,165.886C76.13,558.648,106.696,570.531,147.071,570.531z M66.27,374.243l0.381-2.302   c9.937-60.571,30.607-186.606,104.028-186.606h452.134c77.246,2.209,96.342,162.94,103.537,223.443l0.729,6.12   c5.096,42.466-1.711,74.571-20.213,95.437c-17.59,19.814-46.334,29.861-85.465,29.861h-474.33   c-31.496,0-53.647-8.049-67.715-24.623C52.396,483.822,58.203,423.361,66.27,374.243z" fill="#4D4D4D"/><path d="M759.547,614.666H40.453c-8.371,0-15.168,6.797-15.168,15.168c0,8.379,6.797,15.168,15.168,15.168h719.094   c8.371,0,15.168-6.789,15.168-15.168C774.715,621.463,767.918,614.666,759.547,614.666z" fill="#4D4D4D"/></g></svg>